<mxfile host="app.diagrams.net" modified="2024-03-04T21:50:00.161Z" agent="Mozilla/5.0 (Windows NT 10.0; Win64; x64) AppleWebKit/537.36 (KHTML, like Gecko) Chrome/120.0.0.0 YaBrowser/24.1.0.0 Safari/537.36" etag="4RAr-GTThfCuzTK743ts" version="23.1.5" type="device">
  <diagram name="Страница — 1" id="_zST_4-85igPeYBPQTLL">
    <mxGraphModel dx="1195" dy="653" grid="1" gridSize="10" guides="1" tooltips="1" connect="1" arrows="1" fold="1" page="1" pageScale="1" pageWidth="827" pageHeight="1169" math="0" shadow="0">
      <root>
        <mxCell id="0" />
        <mxCell id="1" parent="0" />
        <mxCell id="h5TCHT_rgkxw9_iUIHO3-1" style="edgeStyle=orthogonalEdgeStyle;rounded=0;orthogonalLoop=1;jettySize=auto;html=1;exitX=0.5;exitY=1;exitDx=0;exitDy=0;entryX=0.5;entryY=0;entryDx=0;entryDy=0;" edge="1" parent="1" source="h5TCHT_rgkxw9_iUIHO3-2" target="h5TCHT_rgkxw9_iUIHO3-4">
          <mxGeometry relative="1" as="geometry" />
        </mxCell>
        <mxCell id="h5TCHT_rgkxw9_iUIHO3-2" value="Старт" style="ellipse;whiteSpace=wrap;html=1;" vertex="1" parent="1">
          <mxGeometry x="310" y="20" width="170" height="40" as="geometry" />
        </mxCell>
        <mxCell id="h5TCHT_rgkxw9_iUIHO3-3" style="edgeStyle=orthogonalEdgeStyle;rounded=0;orthogonalLoop=1;jettySize=auto;html=1;exitX=0.5;exitY=1;exitDx=0;exitDy=0;entryX=0.5;entryY=0;entryDx=0;entryDy=0;" edge="1" parent="1" source="h5TCHT_rgkxw9_iUIHO3-4" target="h5TCHT_rgkxw9_iUIHO3-7">
          <mxGeometry relative="1" as="geometry" />
        </mxCell>
        <mxCell id="h5TCHT_rgkxw9_iUIHO3-4" value="a, b, e, f(x)" style="shape=parallelogram;perimeter=parallelogramPerimeter;whiteSpace=wrap;html=1;fixedSize=1;" vertex="1" parent="1">
          <mxGeometry x="335" y="100" width="120" height="60" as="geometry" />
        </mxCell>
        <mxCell id="h5TCHT_rgkxw9_iUIHO3-5" style="edgeStyle=orthogonalEdgeStyle;rounded=0;orthogonalLoop=1;jettySize=auto;html=1;exitX=1;exitY=0.5;exitDx=0;exitDy=0;entryX=0.5;entryY=0;entryDx=0;entryDy=0;" edge="1" parent="1" source="h5TCHT_rgkxw9_iUIHO3-7" target="h5TCHT_rgkxw9_iUIHO3-9">
          <mxGeometry relative="1" as="geometry" />
        </mxCell>
        <mxCell id="h5TCHT_rgkxw9_iUIHO3-6" style="edgeStyle=orthogonalEdgeStyle;rounded=0;orthogonalLoop=1;jettySize=auto;html=1;exitX=0.5;exitY=1;exitDx=0;exitDy=0;entryX=0.5;entryY=0;entryDx=0;entryDy=0;" edge="1" parent="1" source="h5TCHT_rgkxw9_iUIHO3-7">
          <mxGeometry relative="1" as="geometry">
            <mxPoint x="395" y="310" as="targetPoint" />
          </mxGeometry>
        </mxCell>
        <mxCell id="h5TCHT_rgkxw9_iUIHO3-7" value="f(a)*f(b)&amp;gt;0" style="rhombus;whiteSpace=wrap;html=1;" vertex="1" parent="1">
          <mxGeometry x="355" y="200" width="80" height="80" as="geometry" />
        </mxCell>
        <mxCell id="h5TCHT_rgkxw9_iUIHO3-8" style="edgeStyle=orthogonalEdgeStyle;rounded=0;orthogonalLoop=1;jettySize=auto;html=1;exitX=0.5;exitY=1;exitDx=0;exitDy=0;entryX=0.5;entryY=0;entryDx=0;entryDy=0;" edge="1" parent="1" source="h5TCHT_rgkxw9_iUIHO3-9" target="h5TCHT_rgkxw9_iUIHO3-10">
          <mxGeometry relative="1" as="geometry" />
        </mxCell>
        <mxCell id="h5TCHT_rgkxw9_iUIHO3-9" value="Корней нет, несколько" style="shape=parallelogram;perimeter=parallelogramPerimeter;whiteSpace=wrap;html=1;fixedSize=1;" vertex="1" parent="1">
          <mxGeometry x="571" y="80" width="120" height="60" as="geometry" />
        </mxCell>
        <mxCell id="h5TCHT_rgkxw9_iUIHO3-10" value="Конец" style="ellipse;whiteSpace=wrap;html=1;" vertex="1" parent="1">
          <mxGeometry x="571" y="170" width="120" height="40" as="geometry" />
        </mxCell>
        <mxCell id="h5TCHT_rgkxw9_iUIHO3-11" value="Да" style="text;html=1;align=center;verticalAlign=middle;whiteSpace=wrap;rounded=0;" vertex="1" parent="1">
          <mxGeometry x="435" y="210" width="60" height="30" as="geometry" />
        </mxCell>
        <mxCell id="h5TCHT_rgkxw9_iUIHO3-12" value="Нет" style="text;html=1;align=center;verticalAlign=middle;whiteSpace=wrap;rounded=0;" vertex="1" parent="1">
          <mxGeometry x="384" y="280" width="60" height="30" as="geometry" />
        </mxCell>
        <mxCell id="h5TCHT_rgkxw9_iUIHO3-16" style="edgeStyle=orthogonalEdgeStyle;rounded=0;orthogonalLoop=1;jettySize=auto;html=1;exitX=0;exitY=0.5;exitDx=0;exitDy=0;entryX=0.5;entryY=0;entryDx=0;entryDy=0;" edge="1" parent="1" source="h5TCHT_rgkxw9_iUIHO3-13" target="h5TCHT_rgkxw9_iUIHO3-14">
          <mxGeometry relative="1" as="geometry" />
        </mxCell>
        <mxCell id="h5TCHT_rgkxw9_iUIHO3-17" style="edgeStyle=orthogonalEdgeStyle;rounded=0;orthogonalLoop=1;jettySize=auto;html=1;exitX=1;exitY=0.5;exitDx=0;exitDy=0;entryX=0.5;entryY=0;entryDx=0;entryDy=0;" edge="1" parent="1" source="h5TCHT_rgkxw9_iUIHO3-13" target="h5TCHT_rgkxw9_iUIHO3-15">
          <mxGeometry relative="1" as="geometry" />
        </mxCell>
        <mxCell id="h5TCHT_rgkxw9_iUIHO3-13" value="f&#39;(a)&amp;gt;0" style="rhombus;whiteSpace=wrap;html=1;" vertex="1" parent="1">
          <mxGeometry x="355" y="310" width="80" height="80" as="geometry" />
        </mxCell>
        <mxCell id="h5TCHT_rgkxw9_iUIHO3-21" style="edgeStyle=orthogonalEdgeStyle;rounded=0;orthogonalLoop=1;jettySize=auto;html=1;exitX=0.5;exitY=1;exitDx=0;exitDy=0;entryX=0.5;entryY=0;entryDx=0;entryDy=0;" edge="1" parent="1" source="h5TCHT_rgkxw9_iUIHO3-14" target="h5TCHT_rgkxw9_iUIHO3-20">
          <mxGeometry relative="1" as="geometry" />
        </mxCell>
        <mxCell id="h5TCHT_rgkxw9_iUIHO3-14" value="lambda = -1/max(f&#39;(a),f&#39;(b))" style="rounded=0;whiteSpace=wrap;html=1;" vertex="1" parent="1">
          <mxGeometry x="235" y="420" width="120" height="40" as="geometry" />
        </mxCell>
        <mxCell id="h5TCHT_rgkxw9_iUIHO3-22" style="edgeStyle=orthogonalEdgeStyle;rounded=0;orthogonalLoop=1;jettySize=auto;html=1;exitX=0.5;exitY=1;exitDx=0;exitDy=0;entryX=0.5;entryY=0;entryDx=0;entryDy=0;" edge="1" parent="1" source="h5TCHT_rgkxw9_iUIHO3-15" target="h5TCHT_rgkxw9_iUIHO3-20">
          <mxGeometry relative="1" as="geometry" />
        </mxCell>
        <mxCell id="h5TCHT_rgkxw9_iUIHO3-15" value="lambda = 1/max(f&#39;(a),f&#39;(b))" style="rounded=0;whiteSpace=wrap;html=1;" vertex="1" parent="1">
          <mxGeometry x="435" y="420" width="120" height="40" as="geometry" />
        </mxCell>
        <mxCell id="h5TCHT_rgkxw9_iUIHO3-18" value="Да" style="text;html=1;align=center;verticalAlign=middle;whiteSpace=wrap;rounded=0;" vertex="1" parent="1">
          <mxGeometry x="295" y="320" width="60" height="30" as="geometry" />
        </mxCell>
        <mxCell id="h5TCHT_rgkxw9_iUIHO3-19" value="Нет" style="text;html=1;align=center;verticalAlign=middle;whiteSpace=wrap;rounded=0;" vertex="1" parent="1">
          <mxGeometry x="435" y="320" width="60" height="30" as="geometry" />
        </mxCell>
        <mxCell id="h5TCHT_rgkxw9_iUIHO3-24" style="edgeStyle=orthogonalEdgeStyle;rounded=0;orthogonalLoop=1;jettySize=auto;html=1;exitX=1;exitY=0.5;exitDx=0;exitDy=0;entryX=0.5;entryY=0;entryDx=0;entryDy=0;" edge="1" parent="1" source="h5TCHT_rgkxw9_iUIHO3-20" target="h5TCHT_rgkxw9_iUIHO3-23">
          <mxGeometry relative="1" as="geometry">
            <Array as="points">
              <mxPoint x="580" y="530" />
              <mxPoint x="580" y="440" />
              <mxPoint x="695" y="440" />
            </Array>
          </mxGeometry>
        </mxCell>
        <mxCell id="h5TCHT_rgkxw9_iUIHO3-29" style="edgeStyle=orthogonalEdgeStyle;rounded=0;orthogonalLoop=1;jettySize=auto;html=1;exitX=0.5;exitY=1;exitDx=0;exitDy=0;entryX=0.5;entryY=0;entryDx=0;entryDy=0;" edge="1" parent="1" source="h5TCHT_rgkxw9_iUIHO3-20" target="h5TCHT_rgkxw9_iUIHO3-28">
          <mxGeometry relative="1" as="geometry" />
        </mxCell>
        <mxCell id="h5TCHT_rgkxw9_iUIHO3-20" value="|φ&#39;(a)|&amp;gt;=1 or |φ&#39;(b)|&amp;gt;=1" style="rhombus;whiteSpace=wrap;html=1;" vertex="1" parent="1">
          <mxGeometry x="315" y="480" width="160" height="100" as="geometry" />
        </mxCell>
        <mxCell id="h5TCHT_rgkxw9_iUIHO3-27" style="edgeStyle=orthogonalEdgeStyle;rounded=0;orthogonalLoop=1;jettySize=auto;html=1;exitX=0.5;exitY=1;exitDx=0;exitDy=0;entryX=0.5;entryY=0;entryDx=0;entryDy=0;" edge="1" parent="1" source="h5TCHT_rgkxw9_iUIHO3-23" target="h5TCHT_rgkxw9_iUIHO3-26">
          <mxGeometry relative="1" as="geometry" />
        </mxCell>
        <mxCell id="h5TCHT_rgkxw9_iUIHO3-23" value="φ(a), φ(b)&lt;br&gt;Метод не сходится" style="shape=parallelogram;perimeter=parallelogramPerimeter;whiteSpace=wrap;html=1;fixedSize=1;" vertex="1" parent="1">
          <mxGeometry x="620" y="460" width="150" height="60" as="geometry" />
        </mxCell>
        <mxCell id="h5TCHT_rgkxw9_iUIHO3-25" value="Да" style="text;html=1;align=center;verticalAlign=middle;whiteSpace=wrap;rounded=0;" vertex="1" parent="1">
          <mxGeometry x="490" y="500" width="60" height="30" as="geometry" />
        </mxCell>
        <mxCell id="h5TCHT_rgkxw9_iUIHO3-26" value="Конец" style="ellipse;whiteSpace=wrap;html=1;" vertex="1" parent="1">
          <mxGeometry x="635" y="540" width="120" height="40" as="geometry" />
        </mxCell>
        <mxCell id="h5TCHT_rgkxw9_iUIHO3-33" style="edgeStyle=orthogonalEdgeStyle;rounded=0;orthogonalLoop=1;jettySize=auto;html=1;exitX=0;exitY=0.5;exitDx=0;exitDy=0;entryX=0.5;entryY=0;entryDx=0;entryDy=0;" edge="1" parent="1" source="h5TCHT_rgkxw9_iUIHO3-28" target="h5TCHT_rgkxw9_iUIHO3-31">
          <mxGeometry relative="1" as="geometry" />
        </mxCell>
        <mxCell id="h5TCHT_rgkxw9_iUIHO3-35" style="edgeStyle=orthogonalEdgeStyle;rounded=0;orthogonalLoop=1;jettySize=auto;html=1;exitX=1;exitY=0.5;exitDx=0;exitDy=0;entryX=0.5;entryY=0;entryDx=0;entryDy=0;" edge="1" parent="1" source="h5TCHT_rgkxw9_iUIHO3-28" target="h5TCHT_rgkxw9_iUIHO3-34">
          <mxGeometry relative="1" as="geometry" />
        </mxCell>
        <mxCell id="h5TCHT_rgkxw9_iUIHO3-28" value="f(b)*f&#39;&#39;(b)&amp;gt;0" style="rhombus;whiteSpace=wrap;html=1;" vertex="1" parent="1">
          <mxGeometry x="355" y="610" width="80" height="80" as="geometry" />
        </mxCell>
        <mxCell id="h5TCHT_rgkxw9_iUIHO3-30" value="Нет" style="text;html=1;align=center;verticalAlign=middle;whiteSpace=wrap;rounded=0;" vertex="1" parent="1">
          <mxGeometry x="384" y="580" width="60" height="30" as="geometry" />
        </mxCell>
        <mxCell id="h5TCHT_rgkxw9_iUIHO3-40" style="edgeStyle=orthogonalEdgeStyle;rounded=0;orthogonalLoop=1;jettySize=auto;html=1;exitX=0.5;exitY=1;exitDx=0;exitDy=0;entryX=0.5;entryY=0;entryDx=0;entryDy=0;" edge="1" parent="1" source="h5TCHT_rgkxw9_iUIHO3-31" target="h5TCHT_rgkxw9_iUIHO3-39">
          <mxGeometry relative="1" as="geometry" />
        </mxCell>
        <mxCell id="h5TCHT_rgkxw9_iUIHO3-31" value="x0=b" style="rounded=0;whiteSpace=wrap;html=1;" vertex="1" parent="1">
          <mxGeometry x="235" y="710" width="120" height="40" as="geometry" />
        </mxCell>
        <mxCell id="h5TCHT_rgkxw9_iUIHO3-41" style="edgeStyle=orthogonalEdgeStyle;rounded=0;orthogonalLoop=1;jettySize=auto;html=1;exitX=0.5;exitY=1;exitDx=0;exitDy=0;entryX=0.5;entryY=0;entryDx=0;entryDy=0;" edge="1" parent="1" source="h5TCHT_rgkxw9_iUIHO3-34" target="h5TCHT_rgkxw9_iUIHO3-39">
          <mxGeometry relative="1" as="geometry" />
        </mxCell>
        <mxCell id="h5TCHT_rgkxw9_iUIHO3-34" value="x0=a" style="rounded=0;whiteSpace=wrap;html=1;" vertex="1" parent="1">
          <mxGeometry x="435" y="710" width="120" height="40" as="geometry" />
        </mxCell>
        <mxCell id="h5TCHT_rgkxw9_iUIHO3-36" value="Да" style="text;html=1;align=center;verticalAlign=middle;whiteSpace=wrap;rounded=0;" vertex="1" parent="1">
          <mxGeometry x="295" y="620" width="60" height="30" as="geometry" />
        </mxCell>
        <mxCell id="h5TCHT_rgkxw9_iUIHO3-37" value="Нет" style="text;html=1;align=center;verticalAlign=middle;whiteSpace=wrap;rounded=0;" vertex="1" parent="1">
          <mxGeometry x="435" y="620" width="60" height="30" as="geometry" />
        </mxCell>
        <mxCell id="h5TCHT_rgkxw9_iUIHO3-43" style="edgeStyle=orthogonalEdgeStyle;rounded=0;orthogonalLoop=1;jettySize=auto;html=1;exitX=0.5;exitY=1;exitDx=0;exitDy=0;entryX=0.5;entryY=0;entryDx=0;entryDy=0;" edge="1" parent="1" source="h5TCHT_rgkxw9_iUIHO3-39" target="h5TCHT_rgkxw9_iUIHO3-42">
          <mxGeometry relative="1" as="geometry" />
        </mxCell>
        <mxCell id="h5TCHT_rgkxw9_iUIHO3-56" style="edgeStyle=orthogonalEdgeStyle;rounded=0;orthogonalLoop=1;jettySize=auto;html=1;exitX=1;exitY=0.5;exitDx=0;exitDy=0;entryX=0.5;entryY=0;entryDx=0;entryDy=0;" edge="1" parent="1" source="h5TCHT_rgkxw9_iUIHO3-39" target="h5TCHT_rgkxw9_iUIHO3-51">
          <mxGeometry relative="1" as="geometry">
            <Array as="points">
              <mxPoint x="475" y="805" />
              <mxPoint x="475" y="990" />
              <mxPoint x="395" y="990" />
            </Array>
          </mxGeometry>
        </mxCell>
        <mxCell id="h5TCHT_rgkxw9_iUIHO3-39" value="n:0, 100" style="shape=hexagon;perimeter=hexagonPerimeter2;whiteSpace=wrap;html=1;fixedSize=1;" vertex="1" parent="1">
          <mxGeometry x="335" y="790" width="120" height="30" as="geometry" />
        </mxCell>
        <mxCell id="h5TCHT_rgkxw9_iUIHO3-45" style="edgeStyle=orthogonalEdgeStyle;rounded=0;orthogonalLoop=1;jettySize=auto;html=1;exitX=0.5;exitY=1;exitDx=0;exitDy=0;entryX=0.5;entryY=0;entryDx=0;entryDy=0;" edge="1" parent="1" source="h5TCHT_rgkxw9_iUIHO3-42" target="h5TCHT_rgkxw9_iUIHO3-44">
          <mxGeometry relative="1" as="geometry" />
        </mxCell>
        <mxCell id="h5TCHT_rgkxw9_iUIHO3-42" value="x = x0+lambda*f(x)&lt;br&gt;abs = |x-x0|" style="rounded=0;whiteSpace=wrap;html=1;" vertex="1" parent="1">
          <mxGeometry x="335" y="850" width="120" height="40" as="geometry" />
        </mxCell>
        <mxCell id="h5TCHT_rgkxw9_iUIHO3-47" style="edgeStyle=orthogonalEdgeStyle;rounded=0;orthogonalLoop=1;jettySize=auto;html=1;exitX=0;exitY=0.5;exitDx=0;exitDy=0;entryX=1;entryY=0.5;entryDx=0;entryDy=0;" edge="1" parent="1" source="h5TCHT_rgkxw9_iUIHO3-44" target="h5TCHT_rgkxw9_iUIHO3-46">
          <mxGeometry relative="1" as="geometry" />
        </mxCell>
        <mxCell id="h5TCHT_rgkxw9_iUIHO3-53" style="edgeStyle=orthogonalEdgeStyle;rounded=0;orthogonalLoop=1;jettySize=auto;html=1;exitX=0.5;exitY=1;exitDx=0;exitDy=0;entryX=0.5;entryY=0;entryDx=0;entryDy=0;" edge="1" parent="1" source="h5TCHT_rgkxw9_iUIHO3-44" target="h5TCHT_rgkxw9_iUIHO3-51">
          <mxGeometry relative="1" as="geometry" />
        </mxCell>
        <mxCell id="h5TCHT_rgkxw9_iUIHO3-44" value="abs&amp;lt;=e" style="rhombus;whiteSpace=wrap;html=1;" vertex="1" parent="1">
          <mxGeometry x="355" y="910" width="80" height="60" as="geometry" />
        </mxCell>
        <mxCell id="h5TCHT_rgkxw9_iUIHO3-49" style="edgeStyle=orthogonalEdgeStyle;rounded=0;orthogonalLoop=1;jettySize=auto;html=1;exitX=0;exitY=0.5;exitDx=0;exitDy=0;entryX=0;entryY=0.5;entryDx=0;entryDy=0;" edge="1" parent="1" source="h5TCHT_rgkxw9_iUIHO3-46" target="h5TCHT_rgkxw9_iUIHO3-39">
          <mxGeometry relative="1" as="geometry" />
        </mxCell>
        <mxCell id="h5TCHT_rgkxw9_iUIHO3-46" value="x0=x" style="rounded=0;whiteSpace=wrap;html=1;" vertex="1" parent="1">
          <mxGeometry x="225" y="920" width="85" height="40" as="geometry" />
        </mxCell>
        <mxCell id="h5TCHT_rgkxw9_iUIHO3-48" value="Нет" style="text;html=1;align=center;verticalAlign=middle;whiteSpace=wrap;rounded=0;" vertex="1" parent="1">
          <mxGeometry x="310" y="910" width="60" height="30" as="geometry" />
        </mxCell>
        <mxCell id="h5TCHT_rgkxw9_iUIHO3-50" style="edgeStyle=orthogonalEdgeStyle;rounded=0;orthogonalLoop=1;jettySize=auto;html=1;exitX=0.5;exitY=1;exitDx=0;exitDy=0;entryX=0.5;entryY=0;entryDx=0;entryDy=0;" edge="1" parent="1" source="h5TCHT_rgkxw9_iUIHO3-51" target="h5TCHT_rgkxw9_iUIHO3-52">
          <mxGeometry relative="1" as="geometry" />
        </mxCell>
        <mxCell id="h5TCHT_rgkxw9_iUIHO3-51" value="x, f(x), n, abss" style="shape=parallelogram;perimeter=parallelogramPerimeter;whiteSpace=wrap;html=1;fixedSize=1;" vertex="1" parent="1">
          <mxGeometry x="335" y="1020" width="120" height="60" as="geometry" />
        </mxCell>
        <mxCell id="h5TCHT_rgkxw9_iUIHO3-52" value="Конец" style="ellipse;whiteSpace=wrap;html=1;" vertex="1" parent="1">
          <mxGeometry x="335" y="1120" width="120" height="40" as="geometry" />
        </mxCell>
        <mxCell id="h5TCHT_rgkxw9_iUIHO3-54" value="Да" style="text;html=1;align=center;verticalAlign=middle;whiteSpace=wrap;rounded=0;" vertex="1" parent="1">
          <mxGeometry x="384" y="960" width="60" height="30" as="geometry" />
        </mxCell>
      </root>
    </mxGraphModel>
  </diagram>
</mxfile>
